<?xml version="1.0" encoding="UTF-8"?>
<svg xmlns="http://www.w3.org/2000/svg" xmlns:xlink="http://www.w3.org/1999/xlink" width="147px" height="72px" viewBox="0 0 146 72" version="1.1">
<defs>
<clipPath id="clip1">
  <path d="M 61.597656 16.289062 L 84.511719 16.289062 L 84.511719 37.816406 L 61.597656 37.816406 Z M 61.597656 16.289062 "/>
</clipPath>
<clipPath id="clip2">
  <path d="M 61.597656 0.207031 L 84.511719 0.207031 L 84.511719 18.910156 L 61.597656 18.910156 Z M 61.597656 0.207031 "/>
</clipPath>
</defs>
<g id="surface1">
<g clip-path="url(#clip1)" clip-rule="nonzero">
<path style=" stroke:none;fill-rule:nonzero;fill:rgb(60%,50.196078%,20.784314%);fill-opacity:1;" d="M 67.058594 30.417969 L 79.050781 30.417969 L 79.050781 37.78125 L 84.511719 37.78125 L 84.511719 20.722656 L 79.050781 16.382812 L 79.050781 24.96875 L 67.058594 24.96875 L 67.058594 16.382812 L 61.597656 20.722656 L 61.597656 37.78125 L 67.058594 37.78125 Z M 67.058594 30.417969 "/>
</g>
<g clip-path="url(#clip2)" clip-rule="nonzero">
<path style=" stroke:none;fill-rule:nonzero;fill:rgb(60%,50.196078%,20.784314%);fill-opacity:1;" d="M 84.511719 18.640625 C 84.511719 16.988281 84.511719 6.097656 84.511719 4.585938 L 79.050781 0.246094 L 79.050781 7.332031 L 73.054688 2.566406 C 65.167969 8.835938 67.523438 6.964844 61.597656 11.671875 L 61.597656 18.640625 C 68.21875 13.378906 65.574219 15.480469 73.054688 9.535156 C 80.535156 15.480469 77.890625 13.378906 84.511719 18.640625 Z M 84.511719 18.640625 "/>
</g>
<path style=" stroke:none;fill-rule:nonzero;fill:rgb(60%,50.196078%,20.784314%);fill-opacity:1;" d="M 56.507812 56.773438 L 54.683594 56.773438 L 54.683594 52.988281 L 50.535156 52.988281 L 50.535156 56.773438 L 48.710938 56.773438 L 48.710938 47.457031 L 50.535156 47.457031 L 50.535156 51.214844 L 54.683594 51.214844 L 54.683594 47.457031 L 56.507812 47.457031 Z M 56.507812 56.773438 "/>
<path style=" stroke:none;fill-rule:nonzero;fill:rgb(60%,50.196078%,20.784314%);fill-opacity:1;" d="M 64.648438 54.949219 L 61.578125 54.949219 L 60.820312 56.773438 L 59.015625 56.773438 L 63.203125 47.085938 L 63.300781 47.085938 L 67.488281 56.773438 L 65.371094 56.773438 Z M 64.046875 53.40625 L 63.152344 51.140625 L 62.21875 53.40625 Z M 64.046875 53.40625 "/>
<path style=" stroke:none;fill-rule:nonzero;fill:rgb(60%,50.196078%,20.784314%);fill-opacity:1;" d="M 76.953125 56 C 76.71875 56.195312 76.34375 56.390625 75.832031 56.582031 C 75.316406 56.777344 74.757812 56.875 74.15625 56.875 C 73.1875 56.875 72.347656 56.664062 71.628906 56.242188 C 70.917969 55.820312 70.371094 55.253906 69.992188 54.542969 C 69.613281 53.828125 69.425781 53.042969 69.425781 52.191406 C 69.425781 51.253906 69.613281 50.421875 69.992188 49.6875 C 70.371094 48.949219 70.902344 48.378906 71.582031 47.96875 C 72.261719 47.558594 73.046875 47.355469 73.9375 47.355469 C 74.503906 47.355469 75.023438 47.433594 75.5 47.582031 C 75.980469 47.734375 76.402344 47.921875 76.761719 48.152344 L 76.042969 49.886719 C 75.378906 49.382812 74.699219 49.128906 74.003906 49.128906 C 73.53125 49.128906 73.089844 49.261719 72.675781 49.523438 C 72.265625 49.785156 71.9375 50.140625 71.695312 50.59375 C 71.453125 51.042969 71.332031 51.542969 71.332031 52.09375 C 71.332031 52.691406 71.445312 53.214844 71.671875 53.664062 C 71.898438 54.117188 72.21875 54.46875 72.640625 54.722656 C 73.0625 54.976562 73.554688 55.101562 74.117188 55.101562 C 74.570312 55.101562 74.976562 55.027344 75.335938 54.882812 C 75.699219 54.734375 75.984375 54.558594 76.199219 54.355469 Z M 76.953125 56 "/>
<path style=" stroke:none;fill-rule:nonzero;fill:rgb(60%,50.196078%,20.784314%);fill-opacity:1;" d="M 87.738281 56.773438 L 85.914062 56.773438 L 85.914062 52.988281 L 81.765625 52.988281 L 81.765625 56.773438 L 79.941406 56.773438 L 79.941406 47.457031 L 81.765625 47.457031 L 81.765625 51.214844 L 85.914062 51.214844 L 85.914062 47.457031 L 87.738281 47.457031 Z M 87.738281 56.773438 "/>
<path style=" stroke:none;fill-rule:nonzero;fill:rgb(60%,50.196078%,20.784314%);fill-opacity:1;" d="M 97.625 47.457031 L 97.625 49.226562 L 93.121094 49.226562 L 93.121094 51.214844 L 97.105469 51.214844 L 97.105469 52.988281 L 93.121094 52.988281 L 93.121094 55 L 97.800781 55 L 97.800781 56.773438 L 91.296875 56.773438 L 91.296875 47.457031 Z M 97.625 47.457031 "/>
<path style=" stroke:none;fill-rule:nonzero;fill:rgb(60%,50.196078%,20.784314%);fill-opacity:1;" d="M 36.929688 68.035156 C 36.726562 68.171875 36.46875 68.292969 36.15625 68.410156 C 35.847656 68.519531 35.507812 68.578125 35.144531 68.578125 C 34.496094 68.578125 33.929688 68.433594 33.4375 68.148438 C 32.945312 67.867188 32.566406 67.480469 32.300781 66.996094 C 32.039062 66.511719 31.90625 65.976562 31.90625 65.390625 C 31.90625 64.765625 32.039062 64.203125 32.304688 63.703125 C 32.574219 63.203125 32.945312 62.8125 33.417969 62.53125 C 33.890625 62.246094 34.429688 62.105469 35.03125 62.105469 C 35.382812 62.105469 35.714844 62.152344 36.023438 62.246094 C 36.328125 62.339844 36.605469 62.460938 36.851562 62.613281 L 36.511719 63.410156 C 36.027344 63.085938 35.542969 62.921875 35.054688 62.921875 C 34.644531 62.921875 34.269531 63.03125 33.921875 63.246094 C 33.578125 63.460938 33.300781 63.753906 33.09375 64.128906 C 32.886719 64.496094 32.785156 64.902344 32.785156 65.34375 C 32.785156 65.804688 32.878906 66.214844 33.070312 66.582031 C 33.261719 66.949219 33.53125 67.234375 33.878906 67.445312 C 34.234375 67.652344 34.640625 67.753906 35.097656 67.753906 C 35.660156 67.753906 36.152344 67.59375 36.574219 67.273438 Z M 36.929688 68.035156 "/>
<path style=" stroke:none;fill-rule:nonzero;fill:rgb(60%,50.196078%,20.784314%);fill-opacity:1;" d="M 38.832031 65.34375 C 38.832031 64.769531 38.976562 64.234375 39.269531 63.734375 C 39.558594 63.238281 39.949219 62.84375 40.441406 62.550781 C 40.929688 62.253906 41.46875 62.105469 42.050781 62.105469 C 42.628906 62.105469 43.160156 62.253906 43.652344 62.550781 C 44.148438 62.84375 44.542969 63.238281 44.835938 63.734375 C 45.128906 64.234375 45.277344 64.769531 45.277344 65.34375 C 45.277344 65.929688 45.132812 66.472656 44.839844 66.96875 C 44.550781 67.464844 44.15625 67.859375 43.660156 68.144531 C 43.164062 68.433594 42.628906 68.578125 42.050781 68.578125 C 41.46875 68.578125 40.929688 68.433594 40.4375 68.148438 C 39.941406 67.867188 39.550781 67.476562 39.261719 66.980469 C 38.976562 66.488281 38.832031 65.941406 38.832031 65.34375 Z M 39.703125 65.355469 C 39.703125 65.789062 39.804688 66.191406 40.015625 66.558594 C 40.226562 66.925781 40.511719 67.21875 40.875 67.429688 C 41.238281 67.648438 41.636719 67.753906 42.070312 67.753906 C 42.496094 67.753906 42.890625 67.648438 43.246094 67.4375 C 43.605469 67.226562 43.886719 66.933594 44.09375 66.5625 C 44.300781 66.191406 44.40625 65.785156 44.40625 65.34375 C 44.40625 64.910156 44.296875 64.503906 44.089844 64.132812 C 43.878906 63.757812 43.59375 63.460938 43.234375 63.246094 C 42.871094 63.03125 42.480469 62.921875 42.050781 62.921875 C 41.621094 62.921875 41.222656 63.03125 40.859375 63.25 C 40.5 63.46875 40.21875 63.765625 40.011719 64.140625 C 39.804688 64.511719 39.703125 64.917969 39.703125 65.355469 Z M 39.703125 65.355469 "/>
<path style=" stroke:none;fill-rule:nonzero;fill:rgb(60%,50.196078%,20.784314%);fill-opacity:1;" d="M 53.066406 62.175781 L 53.066406 68.71875 L 53.042969 68.71875 L 48.40625 64 L 48.425781 68.507812 L 47.570312 68.507812 L 47.570312 61.980469 L 47.617188 61.980469 L 52.238281 66.757812 L 52.222656 62.175781 Z M 53.066406 62.175781 "/>
<path style=" stroke:none;fill-rule:nonzero;fill:rgb(60%,50.196078%,20.784314%);fill-opacity:1;" d="M 59.015625 63.304688 C 58.789062 63.183594 58.546875 63.085938 58.292969 63.007812 C 58.035156 62.933594 57.792969 62.894531 57.566406 62.894531 C 57.226562 62.894531 56.953125 62.972656 56.753906 63.128906 C 56.554688 63.28125 56.453125 63.492188 56.453125 63.761719 C 56.453125 64.023438 56.570312 64.238281 56.808594 64.40625 C 57.042969 64.570312 57.378906 64.734375 57.8125 64.898438 C 58.136719 65.019531 58.410156 65.144531 58.636719 65.28125 C 58.859375 65.417969 59.042969 65.609375 59.191406 65.851562 C 59.34375 66.09375 59.417969 66.398438 59.417969 66.773438 C 59.417969 67.113281 59.332031 67.421875 59.164062 67.695312 C 58.996094 67.96875 58.753906 68.183594 58.445312 68.339844 C 58.132812 68.5 57.769531 68.578125 57.351562 68.578125 C 56.960938 68.578125 56.585938 68.515625 56.222656 68.390625 C 55.863281 68.265625 55.546875 68.109375 55.273438 67.914062 L 55.648438 67.242188 C 55.867188 67.40625 56.125 67.542969 56.425781 67.660156 C 56.726562 67.769531 57.011719 67.828125 57.273438 67.828125 C 57.609375 67.828125 57.902344 67.738281 58.15625 67.5625 C 58.410156 67.386719 58.535156 67.128906 58.535156 66.78125 C 58.535156 66.492188 58.429688 66.257812 58.214844 66.085938 C 58.003906 65.914062 57.707031 65.753906 57.324219 65.601562 C 56.96875 65.46875 56.675781 65.335938 56.441406 65.207031 C 56.203125 65.078125 56.003906 64.902344 55.832031 64.675781 C 55.664062 64.453125 55.582031 64.171875 55.582031 63.832031 C 55.582031 63.335938 55.753906 62.933594 56.097656 62.628906 C 56.441406 62.320312 56.894531 62.160156 57.445312 62.140625 C 58.125 62.140625 58.757812 62.3125 59.335938 62.648438 Z M 59.015625 63.304688 "/>
<path style=" stroke:none;fill-rule:nonzero;fill:rgb(60%,50.196078%,20.784314%);fill-opacity:1;" d="M 65.425781 62.175781 L 65.425781 62.992188 L 63.734375 62.992188 L 63.734375 68.507812 L 62.886719 68.507812 L 62.886719 62.992188 L 61.238281 62.992188 L 61.238281 62.175781 Z M 65.425781 62.175781 "/>
<path style=" stroke:none;fill-rule:nonzero;fill:rgb(60%,50.196078%,20.784314%);fill-opacity:1;" d="M 71.121094 68.507812 L 69.640625 66.167969 C 69.59375 66.175781 69.523438 66.175781 69.433594 66.175781 L 68.496094 66.175781 L 68.496094 68.507812 L 67.652344 68.507812 L 67.652344 62.175781 L 69.335938 62.175781 C 69.765625 62.175781 70.148438 62.253906 70.484375 62.40625 C 70.820312 62.554688 71.085938 62.78125 71.28125 63.078125 C 71.472656 63.371094 71.570312 63.726562 71.570312 64.136719 C 71.570312 64.53125 71.484375 64.890625 71.3125 65.21875 C 71.140625 65.542969 70.875 65.789062 70.519531 65.957031 L 72.109375 68.507812 Z M 69.414062 65.355469 C 69.867188 65.355469 70.195312 65.234375 70.394531 64.996094 C 70.59375 64.757812 70.695312 64.480469 70.695312 64.171875 C 70.695312 63.984375 70.652344 63.800781 70.570312 63.621094 C 70.484375 63.441406 70.351562 63.289062 70.167969 63.171875 C 69.984375 63.050781 69.753906 62.992188 69.476562 62.992188 L 68.496094 62.992188 L 68.496094 65.355469 Z M 69.414062 65.355469 "/>
<path style=" stroke:none;fill-rule:nonzero;fill:rgb(60%,50.196078%,20.784314%);fill-opacity:1;" d="M 75.050781 66.269531 C 75.050781 66.546875 75.113281 66.800781 75.25 67.027344 C 75.382812 67.253906 75.566406 67.429688 75.796875 67.558594 C 76.023438 67.691406 76.277344 67.753906 76.558594 67.753906 C 76.847656 67.753906 77.113281 67.691406 77.347656 67.5625 C 77.585938 67.433594 77.765625 67.253906 77.902344 67.027344 C 78.035156 66.800781 78.101562 66.546875 78.101562 66.269531 L 78.101562 62.175781 L 78.933594 62.175781 L 78.933594 66.289062 C 78.933594 66.742188 78.828125 67.144531 78.617188 67.492188 C 78.40625 67.835938 78.121094 68.105469 77.761719 68.296875 C 77.402344 68.484375 77 68.578125 76.558594 68.578125 C 76.121094 68.578125 75.722656 68.484375 75.363281 68.296875 C 75 68.105469 74.71875 67.835938 74.511719 67.492188 C 74.304688 67.144531 74.203125 66.742188 74.203125 66.289062 L 74.203125 62.175781 L 75.050781 62.175781 Z M 75.050781 66.269531 "/>
<path style=" stroke:none;fill-rule:nonzero;fill:rgb(60%,50.196078%,20.784314%);fill-opacity:1;" d="M 86.171875 68.035156 C 85.964844 68.171875 85.707031 68.292969 85.398438 68.410156 C 85.085938 68.519531 84.75 68.578125 84.382812 68.578125 C 83.738281 68.578125 83.167969 68.433594 82.679688 68.148438 C 82.1875 67.867188 81.808594 67.480469 81.542969 66.996094 C 81.28125 66.511719 81.148438 65.976562 81.148438 65.390625 C 81.148438 64.765625 81.28125 64.203125 81.546875 63.703125 C 81.816406 63.203125 82.1875 62.8125 82.660156 62.53125 C 83.132812 62.246094 83.671875 62.105469 84.269531 62.105469 C 84.625 62.105469 84.953125 62.152344 85.261719 62.246094 C 85.570312 62.339844 85.847656 62.460938 86.089844 62.613281 L 85.75 63.410156 C 85.269531 63.085938 84.78125 62.921875 84.292969 62.921875 C 83.886719 62.921875 83.507812 63.03125 83.164062 63.246094 C 82.820312 63.460938 82.542969 63.753906 82.335938 64.128906 C 82.128906 64.496094 82.027344 64.902344 82.027344 65.34375 C 82.027344 65.804688 82.121094 66.214844 82.3125 66.582031 C 82.5 66.949219 82.769531 67.234375 83.121094 67.445312 C 83.476562 67.652344 83.878906 67.753906 84.339844 67.753906 C 84.902344 67.753906 85.394531 67.59375 85.816406 67.273438 Z M 86.171875 68.035156 "/>
<path style=" stroke:none;fill-rule:nonzero;fill:rgb(60%,50.196078%,20.784314%);fill-opacity:1;" d="M 92.1875 62.175781 L 92.1875 62.992188 L 90.496094 62.992188 L 90.496094 68.507812 L 89.648438 68.507812 L 89.648438 62.992188 L 88 62.992188 L 88 62.175781 Z M 92.1875 62.175781 "/>
<path style=" stroke:none;fill-rule:nonzero;fill:rgb(60%,50.196078%,20.784314%);fill-opacity:1;" d="M 94.023438 65.34375 C 94.023438 64.769531 94.167969 64.234375 94.457031 63.734375 C 94.746094 63.238281 95.136719 62.84375 95.628906 62.550781 C 96.121094 62.253906 96.660156 62.105469 97.242188 62.105469 C 97.816406 62.105469 98.351562 62.253906 98.84375 62.550781 C 99.339844 62.84375 99.730469 63.238281 100.023438 63.734375 C 100.320312 64.234375 100.46875 64.769531 100.46875 65.34375 C 100.46875 65.929688 100.320312 66.472656 100.03125 66.96875 C 99.738281 67.464844 99.347656 67.859375 98.847656 68.144531 C 98.351562 68.433594 97.816406 68.578125 97.242188 68.578125 C 96.660156 68.578125 96.121094 68.433594 95.625 68.148438 C 95.128906 67.867188 94.738281 67.476562 94.453125 66.980469 C 94.164062 66.488281 94.023438 65.941406 94.023438 65.34375 Z M 94.890625 65.355469 C 94.890625 65.789062 94.996094 66.191406 95.203125 66.558594 C 95.414062 66.925781 95.703125 67.21875 96.066406 67.429688 C 96.429688 67.648438 96.828125 67.753906 97.257812 67.753906 C 97.6875 67.753906 98.078125 67.648438 98.4375 67.4375 C 98.796875 67.226562 99.078125 66.933594 99.28125 66.5625 C 99.492188 66.191406 99.59375 65.785156 99.59375 65.34375 C 99.59375 64.910156 99.488281 64.503906 99.277344 64.132812 C 99.070312 63.757812 98.785156 63.460938 98.421875 63.246094 C 98.0625 63.03125 97.667969 62.921875 97.242188 62.921875 C 96.808594 62.921875 96.414062 63.03125 96.050781 63.25 C 95.691406 63.46875 95.410156 63.765625 95.199219 64.140625 C 94.996094 64.511719 94.890625 64.917969 94.890625 65.355469 Z M 94.890625 65.355469 "/>
<path style=" stroke:none;fill-rule:nonzero;fill:rgb(60%,50.196078%,20.784314%);fill-opacity:1;" d="M 106.230469 68.507812 L 104.75 66.167969 C 104.703125 66.175781 104.632812 66.175781 104.542969 66.175781 L 103.605469 66.175781 L 103.605469 68.507812 L 102.761719 68.507812 L 102.761719 62.175781 L 104.445312 62.175781 C 104.875 62.175781 105.257812 62.253906 105.59375 62.40625 C 105.929688 62.554688 106.195312 62.78125 106.390625 63.078125 C 106.582031 63.371094 106.679688 63.726562 106.679688 64.136719 C 106.679688 64.53125 106.59375 64.890625 106.421875 65.21875 C 106.25 65.542969 105.984375 65.789062 105.628906 65.957031 L 107.21875 68.507812 Z M 104.527344 65.355469 C 104.976562 65.355469 105.304688 65.234375 105.503906 64.996094 C 105.703125 64.757812 105.804688 64.480469 105.804688 64.171875 C 105.804688 63.984375 105.761719 63.800781 105.679688 63.621094 C 105.59375 63.441406 105.460938 63.289062 105.277344 63.171875 C 105.097656 63.050781 104.863281 62.992188 104.585938 62.992188 L 103.605469 62.992188 L 103.605469 65.355469 Z M 104.527344 65.355469 "/>
<path style=" stroke:none;fill-rule:nonzero;fill:rgb(60%,50.196078%,20.784314%);fill-opacity:1;" d="M 112.699219 66.84375 L 110.273438 66.84375 L 109.601562 68.507812 L 108.765625 68.507812 L 111.523438 61.914062 L 111.570312 61.914062 L 114.328125 68.507812 L 113.351562 68.507812 Z M 112.410156 66.109375 L 111.511719 63.796875 L 110.574219 66.109375 Z M 112.410156 66.109375 "/>
</g>
</svg>
