<svg xmlns="http://www.w3.org/2000/svg" xmlns:xlink="http://www.w3.org/1999/xlink" width="80" zoomAndPan="magnify" viewBox="0 0 60 60" height="80" preserveAspectRatio="xMidYMid meet" version="1.0"><defs><clipPath id="ccc525da21"><path d="M 0 7.863281 L 60 7.863281 L 60 56.613281 L 0 56.613281 Z M 0 7.863281 " clip-rule="nonzero"/></clipPath></defs><rect x="-6" width="72" fill="#ffffff" y="-6" height="72" fill-opacity="1"/><rect x="-6" width="72" fill="#ffffff" y="-6" height="72" fill-opacity="1"/><rect x="-6" width="72" fill="#ffffff" y="-6" height="72" fill-opacity="1"/><g clip-path="url(#ccc525da21)"><path fill="#aa9144" d="M 51.007812 22.113281 L 51.007812 53.359375 L 9.285156 53.359375 L 9.285156 22.113281 L 9.253906 22.113281 L 14.3125 19.554688 C 14.957031 19.226562 15.355469 18.574219 15.355469 17.851562 L 15.355469 10.90625 L 18.605469 10.90625 L 18.605469 14.265625 C 18.605469 14.933594 18.949219 15.539062 19.523438 15.890625 C 20.09375 16.242188 20.792969 16.265625 21.390625 15.964844 L 30.148438 11.527344 L 51.039062 22.113281 Z M 61.253906 53.601562 C 58.855469 53.601562 56.460938 53.601562 54.066406 53.601562 L 54.066406 25.160156 L 55.800781 25.160156 C 56.691406 25.160156 57.453125 24.558594 57.667969 23.699219 C 57.871094 22.832031 57.464844 21.953125 56.671875 21.550781 L 31.011719 8.546875 C 30.46875 8.273438 29.824219 8.273438 29.277344 8.546875 L 21.664062 12.40625 L 21.664062 10.484375 C 21.664062 9.035156 20.480469 7.859375 19.027344 7.859375 L 14.933594 7.859375 C 13.480469 7.859375 12.296875 9.035156 12.296875 10.484375 L 12.296875 17.152344 L 3.625 21.550781 C 2.832031 21.953125 2.421875 22.832031 2.628906 23.699219 C 2.835938 24.558594 3.605469 25.160156 4.496094 25.160156 L 6.230469 25.160156 L 6.230469 53.601562 C 3.832031 53.601562 1.4375 53.601562 -0.957031 53.601562 C -2.921875 53.601562 -2.925781 56.644531 -0.957031 56.644531 C 17.21875 56.644531 35.394531 56.644531 53.570312 56.644531 C 56.128906 56.644531 58.691406 56.644531 61.253906 56.644531 C 63.21875 56.644531 63.222656 53.601562 61.253906 53.601562 " fill-opacity="1" fill-rule="nonzero"/></g><path fill="#aa9144" d="M 36.894531 26.820312 L 36.894531 29.734375 L 23.394531 29.734375 L 23.394531 26.820312 C 23.394531 23.117188 26.425781 20.101562 30.148438 20.101562 C 33.867188 20.101562 36.894531 23.117188 36.894531 26.820312 Z M 39.355469 32.78125 C 40.386719 32.78125 41.21875 33.613281 41.21875 34.636719 L 41.21875 44.921875 C 41.21875 45.945312 40.386719 46.777344 39.355469 46.777344 L 20.9375 46.777344 C 19.910156 46.777344 19.074219 45.945312 19.074219 44.921875 L 19.074219 34.636719 C 19.074219 33.613281 19.910156 32.78125 20.9375 32.78125 Z M 20.339844 26.820312 L 20.339844 29.777344 C 17.910156 30.070312 16.019531 32.136719 16.019531 34.636719 L 16.019531 44.921875 C 16.019531 47.625 18.222656 49.824219 20.9375 49.824219 L 39.355469 49.824219 C 42.070312 49.824219 44.277344 47.625 44.277344 44.921875 L 44.277344 34.636719 C 44.277344 32.136719 42.386719 30.070312 39.953125 29.777344 L 39.953125 26.820312 C 39.953125 21.4375 35.554688 17.050781 30.148438 17.050781 C 24.738281 17.050781 20.339844 21.4375 20.339844 26.820312 " fill-opacity="1" fill-rule="nonzero"/><path fill="#aa9144" d="M 30.148438 38.0625 C 30.460938 38.0625 30.71875 38.316406 30.71875 38.628906 C 30.71875 38.941406 30.460938 39.199219 30.148438 39.199219 C 29.832031 39.199219 29.578125 38.941406 29.578125 38.628906 C 29.578125 38.316406 29.832031 38.0625 30.148438 38.0625 Z M 28.617188 41.902344 C 28.617188 42.609375 28.617188 43.320312 28.617188 44.03125 C 28.617188 45.992188 31.675781 45.996094 31.675781 44.03125 C 31.675781 43.320312 31.675781 42.609375 31.675781 41.902344 C 32.910156 41.324219 33.773438 40.078125 33.773438 38.628906 C 33.773438 36.636719 32.148438 35.015625 30.148438 35.015625 C 28.148438 35.015625 26.519531 36.636719 26.519531 38.628906 C 26.519531 40.078125 27.378906 41.324219 28.617188 41.902344 " fill-opacity="1" fill-rule="nonzero"/></svg>