<svg xmlns="http://www.w3.org/2000/svg" xmlns:xlink="http://www.w3.org/1999/xlink" width="80" zoomAndPan="magnify" viewBox="0 0 60 60" height="80" preserveAspectRatio="xMidYMid meet" version="1.0"><defs><clipPath id="5b105b9f55"><path d="M 1.199219 49 L 8 49 L 8 56 L 1.199219 56 Z M 1.199219 49 " clip-rule="nonzero"/></clipPath><clipPath id="bde45733e1"><path d="M 20 39 L 58.851562 39 L 58.851562 56 L 20 56 Z M 20 39 " clip-rule="nonzero"/></clipPath><clipPath id="7b2eeb2364"><path d="M 9 20.035156 L 17 20.035156 L 17 28 L 9 28 Z M 9 20.035156 " clip-rule="nonzero"/></clipPath><clipPath id="d98f6e7c4a"><path d="M 1.199219 21 L 29 21 L 29 58.1875 L 1.199219 58.1875 Z M 1.199219 21 " clip-rule="nonzero"/></clipPath><clipPath id="f537e1680c"><path d="M 35 11 L 55 11 L 55 32.632812 L 35 32.632812 Z M 35 11 " clip-rule="nonzero"/></clipPath><clipPath id="c93d7093df"><path d="M 31.667969 7.199219 L 58.800781 7.199219 L 58.800781 21 L 31.667969 21 Z M 31.667969 7.199219 " clip-rule="nonzero"/></clipPath></defs><rect x="-6" width="72" fill="#ffffff" y="-6" height="72" fill-opacity="1"/><rect x="-6" width="72" fill="#ffffff" y="-6" height="72" fill-opacity="1"/><rect x="-6" width="72" fill="#ffffff" y="-6" height="72" fill-opacity="1"/><g clip-path="url(#5b105b9f55)"><path fill="#aa9144" d="M 2.460938 55.105469 L 7.816406 50.203125 L 7.816406 49.71875 L 1.214844 55.589844 L 7.816406 55.589844 L 7.816406 55.105469 Z M 2.460938 55.105469 " fill-opacity="1" fill-rule="nonzero"/></g><g clip-path="url(#bde45733e1)"><path fill="#aa9144" d="M 41.359375 40.371094 L 42.511719 41.433594 L 39.832031 41.433594 C 39.828125 41.433594 39.820312 41.59375 39.816406 41.59375 L 42.625 41.59375 L 45.296875 44.007812 L 37.945312 44.007812 L 36.558594 41.59375 L 38.683594 41.59375 C 38.679688 41.59375 38.671875 41.433594 38.664062 41.433594 L 36.5 41.433594 L 35.542969 39.824219 L 36.683594 39.824219 L 36.683594 39.664062 L 21.464844 39.664062 C 21.464844 39.664062 21.464844 39.824219 21.464844 39.824219 L 24.503906 39.824219 L 23.546875 41.433594 L 21.421875 41.433594 C 21.417969 41.433594 21.417969 41.59375 21.417969 41.59375 L 23.488281 41.59375 L 22.105469 44.007812 L 20.804688 44.007812 L 20.804688 44.167969 L 22.015625 44.167969 L 20.804688 46.101562 L 20.804688 46.90625 L 22.398438 44.167969 L 29.832031 44.167969 L 29.796875 46.742188 L 30.25 46.742188 L 30.214844 44.167969 L 34.691406 44.167969 C 34.714844 44.007812 34.734375 44.007812 34.75 44.007812 L 30.210938 44.007812 L 30.179688 41.59375 L 36.246094 41.59375 L 37.566406 44.007812 L 35.921875 44.007812 C 35.941406 44.007812 35.957031 44.007812 35.980469 44.167969 L 37.648438 44.167969 L 39.730469 48.027344 L 31.710938 48.027344 L 31.710938 48.1875 L 39.867188 48.1875 L 43.636719 55.105469 L 30.8125 55.105469 L 30.777344 55.589844 L 58.832031 55.589844 L 41.613281 40.351562 Z M 29.835938 44.007812 L 22.484375 44.007812 L 23.800781 41.59375 L 29.867188 41.59375 Z M 29.871094 41.433594 L 23.859375 41.433594 L 24.769531 39.824219 L 29.894531 39.824219 Z M 30.179688 41.433594 L 30.15625 39.824219 L 35.277344 39.824219 L 36.191406 41.433594 Z M 44.316406 55.105469 L 40.359375 48.1875 L 49.957031 48.1875 L 57.589844 55.105469 Z M 40.214844 48.027344 L 38.03125 44.167969 L 45.464844 44.167969 L 49.679688 48.027344 Z M 40.214844 48.027344 " fill-opacity="1" fill-rule="nonzero"/></g><g clip-path="url(#7b2eeb2364)"><path fill="#aa9144" d="M 12.804688 20.035156 C 10.8125 20.035156 9.199219 21.65625 9.199219 23.652344 C 9.199219 25.652344 10.8125 27.273438 12.804688 27.273438 C 14.800781 27.273438 16.414062 25.652344 16.414062 23.652344 C 16.414062 21.65625 14.800781 20.035156 12.804688 20.035156 Z M 12.804688 26.292969 C 11.855469 26.292969 11.023438 25.832031 10.554688 25.027344 L 15.058594 25.027344 C 14.589844 25.832031 13.757812 26.292969 12.804688 26.292969 Z M 12.804688 26.292969 " fill-opacity="1" fill-rule="nonzero"/></g><path fill="#aa9144" d="M 30.609375 48.351562 L 31.070312 48.351562 L 31.070312 47.386719 L 22.890625 47.386719 L 22.890625 48.351562 L 23.296875 48.351562 L 23.335938 48.96875 L 27.066406 47.933594 C 27.238281 47.882812 27.414062 47.984375 27.460938 48.15625 C 27.507812 48.328125 27.410156 48.507812 27.238281 48.554688 L 23.378906 49.632812 L 23.671875 54.066406 C 23.796875 54.09375 23.917969 54.117188 24.03125 54.140625 C 24.484375 54.226562 24.808594 54.285156 24.898438 54.589844 C 24.953125 54.773438 24.878906 54.960938 24.683594 55.148438 C 24.550781 55.273438 24.507812 55.382812 24.523438 55.417969 C 24.554688 55.496094 24.851562 55.699219 25.859375 55.699219 C 25.933594 55.699219 26.015625 55.699219 26.097656 55.695312 C 26.152344 55.695312 26.199219 55.683594 26.25 55.683594 C 27.324219 55.683594 28 56.070312 28.3125 56.390625 L 30.078125 56.390625 Z M 30.609375 48.351562 " fill-opacity="1" fill-rule="nonzero"/><path fill="#aa9144" d="M 23.488281 49.269531 C 23.441406 49.097656 23.261719 49 23.09375 49.046875 L 22.175781 49.304688 C 22.003906 49.351562 21.90625 49.527344 21.953125 49.699219 C 21.992188 49.839844 22.121094 49.933594 22.261719 49.933594 C 22.289062 49.933594 22.320312 49.929688 22.347656 49.921875 L 23.265625 49.664062 C 23.4375 49.617188 23.535156 49.441406 23.488281 49.269531 Z M 23.488281 49.269531 " fill-opacity="1" fill-rule="nonzero"/><g clip-path="url(#d98f6e7c4a)"><path fill="#aa9144" d="M 17.117188 40.433594 L 17.117188 32.0625 C 17.917969 33.558594 18.484375 36.574219 18.15625 42.222656 C 18.113281 42.933594 18.636719 43.542969 19.34375 43.582031 C 19.355469 43.585938 19.363281 43.585938 19.363281 43.585938 L 19.363281 54.566406 C 18.558594 54.773438 17.773438 55.050781 18.316406 55.527344 C 19.230469 56.324219 17.507812 57.753906 19.789062 57.9375 C 22.074219 58.121094 25.917969 58.042969 27.382812 57.675781 C 28.84375 57.304688 28.296875 55.957031 26.105469 56.015625 C 23.910156 56.078125 24.003906 55.339844 24.460938 54.910156 C 24.917969 54.480469 24.097656 54.542969 23.273438 54.296875 C 22.453125 54.050781 21.789062 53.875 20.964844 54.183594 C 20.78125 54.25 20.484375 54.316406 20.164062 54.386719 L 20.164062 43.332031 C 20.484375 43.109375 20.65625 42.769531 20.679688 42.375 C 20.902344 38.535156 20.804688 35.453125 20.164062 33.144531 L 20.164062 21.8125 L 19.363281 21.8125 L 19.363281 30.875 C 19.042969 30.191406 18.648438 29.632812 18.1875 29.199219 C 17.285156 28.347656 16.417969 28.230469 15.96875 28.21875 C 15.941406 28.21875 15.929688 28.246094 15.90625 28.246094 L 9.707031 28.246094 C 9.660156 28.246094 9.613281 28.21875 9.566406 28.226562 C 9.144531 28.25 8.433594 28.386719 7.683594 28.992188 C 6.234375 30.15625 5.324219 32.453125 4.976562 35.824219 C 4.773438 35.902344 4.398438 35.941406 3.964844 35.941406 L 3.96875 35.910156 L 3.808594 35.082031 C 3.804688 34.882812 3.640625 34.722656 3.441406 34.726562 C 3.242188 34.730469 3.085938 34.898438 3.089844 35.097656 L 3.242188 35.910156 C 3.003906 35.894531 2.765625 35.863281 2.539062 35.824219 C 1.839844 35.703125 1.398438 38.234375 2.09375 38.359375 C 2.425781 38.417969 3.113281 38.519531 3.890625 38.519531 C 4.835938 38.519531 5.910156 38.371094 6.636719 37.8125 C 7.148438 37.421875 7.445312 36.882812 7.507812 36.25 C 7.699219 34.261719 8.136719 32.960938 8.457031 32.125 L 8.457031 56.195312 C 8.457031 57.292969 9.367188 58.183594 10.460938 58.183594 C 11.554688 58.183594 12.464844 57.292969 12.464844 56.195312 L 12.464844 41.753906 L 13.105469 41.753906 L 13.105469 56.195312 C 13.105469 57.292969 14.015625 58.183594 15.113281 58.183594 C 16.207031 58.183594 17.117188 57.292969 17.117188 56.195312 Z M 17.117188 40.433594 " fill-opacity="1" fill-rule="nonzero"/></g><path fill="#aa9144" d="M 34.652344 35.160156 C 34.546875 36.449219 34.117188 36.746094 32.832031 36.851562 L 32.832031 36.910156 C 34.117188 37.015625 34.546875 37.414062 34.652344 38.699219 L 34.710938 38.699219 C 34.816406 37.414062 35.238281 37.015625 36.523438 36.910156 L 36.523438 36.851562 C 35.238281 36.746094 34.816406 36.449219 34.710938 35.160156 Z M 34.652344 35.160156 " fill-opacity="1" fill-rule="nonzero"/><path fill="#aa9144" d="M 40.695312 33.070312 C 40.605469 34.195312 40.210938 34.40625 39.25 34.496094 L 39.25 34.546875 C 40.210938 34.636719 40.605469 35 40.695312 36.125 L 40.746094 36.125 C 40.835938 35 41.171875 34.636719 42.296875 34.546875 L 42.296875 34.496094 C 41.171875 34.40625 40.835938 34.195312 40.746094 33.070312 Z M 40.695312 33.070312 " fill-opacity="1" fill-rule="nonzero"/><path fill="#aa9144" d="M 33.796875 44.949219 L 33.796875 44.996094 C 34.917969 45.089844 35.21875 45.453125 35.3125 46.582031 L 35.363281 46.582031 C 35.453125 45.453125 35.71875 45.089844 36.84375 44.996094 L 36.84375 44.949219 C 35.71875 44.855469 35.453125 44.652344 35.363281 43.523438 L 35.3125 43.523438 C 35.21875 44.652344 34.917969 44.855469 33.796875 44.949219 Z M 33.796875 44.949219 " fill-opacity="1" fill-rule="nonzero"/><path fill="#aa9144" d="M 37.164062 39.804688 L 37.164062 39.871094 C 38.609375 39.996094 39.09375 40.46875 39.214844 41.917969 L 39.28125 41.917969 C 39.40625 40.46875 39.890625 39.996094 41.335938 39.871094 L 41.335938 39.804688 C 39.890625 39.683594 39.40625 39.34375 39.28125 37.894531 L 39.214844 37.894531 C 39.09375 39.34375 38.609375 39.683594 37.164062 39.804688 Z M 37.164062 39.804688 " fill-opacity="1" fill-rule="nonzero"/><g clip-path="url(#f537e1680c)"><path fill="#aa9144" d="M 54.757812 20.128906 Z M 54.757812 20.128906 L 45.238281 11.769531 L 35.714844 20.128906 L 35.714844 32.074219 C 35.714844 32.382812 35.964844 32.632812 36.277344 32.632812 L 42.226562 32.632812 L 42.226562 27.394531 C 42.226562 27.085938 42.476562 26.835938 42.789062 26.835938 L 47.679688 26.835938 C 47.992188 26.835938 48.242188 27.085938 48.242188 27.394531 L 48.242188 32.632812 L 54.195312 32.632812 C 54.507812 32.632812 54.753906 32.382812 54.753906 32.074219 L 54.753906 20.125 Z M 35.714844 20.128906 Z M 35.714844 20.128906 " fill-opacity="1" fill-rule="nonzero"/></g><g clip-path="url(#c93d7093df)"><path fill="#aa9144" d="M 45.183594 7.199219 L 31.671875 19.054688 L 33.097656 20.644531 L 45.238281 9.988281 L 57.375 20.644531 L 58.796875 19.054688 L 45.289062 7.199219 L 45.238281 7.257812 Z M 45.183594 7.199219 " fill-opacity="1" fill-rule="nonzero"/></g><path fill="#aa9144" d="M 35.714844 8.90625 L 39.136719 8.90625 L 39.109375 10.914062 L 35.714844 13.953125 Z M 35.714844 8.90625 " fill-opacity="1" fill-rule="nonzero"/></svg>